<svg width="0" height="0" class="hidden">
  <symbol version="1.1" id="car1" xmlns="http://www.w3.org/2000/svg" xmlns:xlink="http://www.w3.org/1999/xlink" x="0px" y="0px" xml:space="preserve" viewBox="0 0 63 63">
    <g>
      <g id="group-39svg">
        <path id="path-1_31_" d="M58.004,44.772c-0.828,0-1.607-0.673-1.607-1.501c0-0.83,0.832-1.501,1.661-1.501
			c0.44,0,1.942,0,1.942-2.568v-4.098c0-3.587-3.343-6.505-6.927-6.505h-44C5.489,28.599,3,31.517,3,35.104v3.751
			c0,1.518,0.808,2.753,2.324,2.753h2.249c0.828,0,1.5,0.672,1.5,1.501c0,0.829-0.672,1.501-1.5,1.501H5.324
			C2.153,44.61,0,42.029,0,38.855v-3.751c0-5.242,3.835-9.507,9.073-9.507h44c5.239,0,9.927,4.265,9.927,9.507v4.098
			C63,42.586,60.91,44.772,58.004,44.772z"></path>
        <path id="path-2_31_" d="M44.573,44.61h-24c-0.828,0-1.5-0.672-1.5-1.501c0-0.829,0.672-1.501,1.5-1.501h24
			c0.828,0,1.5,0.672,1.5,1.501C46.073,43.938,45.401,44.61,44.573,44.61z"></path>
        <path id="path-3_31_" d="M44.533,27.598c-0.819,0-1.488-0.906-1.5-1.728c-0.073-5.271-6.653-11.29-15.349-11.29
			c-8.464,0-15.35,4.938-15.35,11.083c0,0.829-0.672,1.47-1.5,1.47s-1.5-0.687-1.5-1.516c0-7.801,8.231-14.155,18.35-14.155
			c9.669,0,18.245,6.845,18.349,14.371c0.012,0.828-0.65,0.765-1.479,1.765C44.547,27.598,44.54,27.598,44.533,27.598z"></path>
        <path id="path-4_29_" d="M51.514,51.538c-4.06,0-7.363-3.305-7.363-7.367s3.303-7.367,7.363-7.367
			c4.059,0,7.362,3.305,7.362,7.367S55.573,51.538,51.514,51.538z M51.514,39.806c-2.406,0-4.363,1.958-4.363,4.365
			s1.957,4.365,4.363,4.365c2.405,0,4.362-1.958,4.362-4.365S53.919,39.806,51.514,39.806z"></path>
        <path id="path-5_27_" d="M14.376,50.538c-4.06,0-7.362-3.306-7.362-7.367c0-4.063,3.302-7.368,7.362-7.368
			c4.059,0,7.362,3.305,7.362,7.368C21.738,47.232,18.435,50.538,14.376,50.538z M14.376,38.805c-2.405,0-4.362,1.959-4.362,4.366
			s1.957,4.364,4.362,4.364s4.362-1.957,4.362-4.364S16.781,38.805,14.376,38.805z"></path>
        <path id="path-6_22_" d="M27.5,28.099c-0.828,0-1.5-0.673-1.5-1.501V13.589c0-0.83,0.672-1.502,1.5-1.502s1.5,0.672,1.5,1.502
			v13.009C29,27.426,28.328,28.099,27.5,28.099z"></path>
        <path id="path-7_18_" d="M60.573,34.603h-4c-0.828,0-1.5-0.672-1.5-1.501c0-0.829,0.672-1.501,1.5-1.501h4
			c0.828,0,1.5,0.672,1.5,1.501C62.073,33.931,61.401,34.603,60.573,34.603z"></path>
      </g>
    </g>
    <g></g>
    <g></g>
    <g></g>
    <g></g>
    <g></g>
    <g></g>
    <g></g>
    <g></g>
    <g></g>
    <g></g>
    <g></g>
    <g></g>
    <g></g>
    <g></g>
    <g></g>
  </symbol>
  <symbol xmlns="http://www.w3.org/2000/svg" viewBox="0 0 1920 1920" id="car2">
    <path d="M1345 1019.8c70.6 0 127.8 57.2 127.8 127.8s-57.2 127.8-127.8 127.8-127.8-57.2-127.8-127.8 57.2-127.8 127.8-127.8zm-969 127.8c0 70.6 57.2 127.8 127.8 127.8s127.8-57.2 127.8-127.8-57.2-127.8-127.8-127.8S376 1077 376 1147.6z" id="Layer_11"></path>
    <path d="M842 1147.6H631.6c0-70.6-57.2-127.8-127.8-127.8S376 1077 376 1147.6c-97.1 0-159-64.1-159-142.4v-76.6c0-36.2 29.6-65.8 65.7-65.8h119.6C477 731.1 575.4 644.6 715.1 644.6h232.8c44.3 0 87.5 12.7 124.7 36.4 12.3 7.9 24.9 15.5 37.7 22.4l224.1 121.1 252.8 38.3c55.2 0 101.4 38.6 113 90.4h-134.7v89h135.1c-9.8 60.4-48.6 105.4-113.4 105.4h-114.3c0-70.6-57.2-127.8-127.8-127.8s-127.8 57.2-127.8 127.8H842zm324.9-273.9c24.4 0 33-31.3 11.8-43L997.5 730.5c-13.5-7.5-28.8-11.4-44.3-11.4H711.6c-9.2 0-21.6 2.4-35.6 6.3-62 17.5-115.8 55.4-152.8 106.6L501 862.7c-3.3 4.6 0 11.1 5.7 11.1h660.2z" id="Layer_12"></path>
    <path d="M1178.7 830.8c21.2 11.7 12.6 43-11.8 43H842V719.1h111.2c15.6 0 30.8 3.9 44.3 11.4l181.2 100.3zM711.6 719.1c-9.2 0-21.6 2.4-35.6 6.3-62 17.5-115.8 55.4-152.8 106.6L501 862.7c-3.3 4.6 0 11.1 5.7 11.1H842V719.1H711.6z" id="Layer_13"></path>
    <path d="M1703.1 978.7v31.8c0 10.9-.8 21.6-2.5 31.7h-135.1v-89h134.7c1.9 8.2 2.9 16.8 2.9 25.5z" id="Layer_14"></path>
    <g id="STROKES">
      <path d="M1472.8 1147.6h114.3c64.8 0 103.5-44.9 113.4-105.4 1.7-10.2 2.5-20.8 2.5-31.7v-31.8c0-8.8-1-17.3-2.8-25.5-11.6-51.7-57.8-90.4-113-90.4l-252.8-38.3-224.1-121.1c-12.9-7-25.4-14.6-37.7-22.4-37.1-23.7-80.4-36.4-124.7-36.4H715.1c-139.7 0-238.1 86.5-312.8 218.2H282.7c-36.2 0-65.7 29.6-65.7 65.8v76.6c0 78.3 61.9 142.4 159 142.4"></path>
      <path d="M631.6 1147.6h585.6"></path>
      <path d="M1472.8 1147.6c0 70.6-57.2 127.8-127.8 127.8s-127.8-57.2-127.8-127.8 57.2-127.8 127.8-127.8 127.8 57.2 127.8 127.8z"></path>
      <circle cx="503.8" cy="1147.6" r="127.8"></circle>
      <path d="M842 719.1H711.6c-9.2 0-21.6 2.4-35.6 6.3-62 17.5-115.8 55.4-152.8 106.6L501 862.7c-3.3 4.6 0 11.1 5.7 11.1h660.2c24.4 0 33-31.3 11.8-43L997.5 730.5c-13.5-7.5-28.8-11.4-44.3-11.4H842z"></path>
      <path d="M842 719.1v154.6"></path>
      <path d="M842 963.1v184.5"></path>
      <path d="M1700.6 1042.2h-135.1v-89h134.7"></path>
    </g>
  </symbol>
  <symbol version="1.1" xmlns="http://www.w3.org/2000/svg" xmlns:xlink="http://www.w3.org/1999/xlink" enable-background="new 0 0 420.849 420.849" viewBox="0 0 420.849 420.849" id="car3">
    <g>
      <g>
        <path d="m81.123,216.924c-17.161,0-31.125,13.959-31.125,31.12 0,17.166 13.959,31.131 31.125,31.131 17.155,0 31.12-13.959 31.12-31.131-1.42109e-14-17.156-13.965-31.12-31.12-31.12zm0,44.956c-7.631,0-13.831-6.205-13.831-13.837 0-7.62 6.199-13.825 13.831-13.825 7.626,0 13.825,6.205 13.825,13.825-1.42109e-14,7.626-6.199,13.837-13.825,13.837z"></path>
        <path d="m339.65,222.541c-15.612,0-28.308,12.702-28.308,28.308s12.702,28.32 28.308,28.32c15.606,0 28.308-12.713 28.308-28.32s-12.696-28.308-28.308-28.308zm0,39.339c-6.083,0-11.019-4.948-11.019-11.031 0-6.071 4.936-11.019 11.019-11.019 6.071,0 11.019,4.948 11.019,11.019 0,6.083-4.948,11.031-11.019,11.031z"></path>
        <rect width="177.544" x="120.497" y="257.375" height="17.295"></rect>
        <polygon points="415.202,206.405 407.012,198.226 391.371,190.746 285.421,180.705 231.121,141.674     185.461,141.674 127.465,151.541 59.835,182.794 43.699,177.637 0,177.637 0,191.712 13.441,211.877 0,220.981 0,251.67     12.079,263.743 24.303,251.524 17.283,244.504 17.283,230.161 37.354,216.574 22.918,194.926 41.004,194.926 60.976,201.317     132.634,168.201 186.922,158.969 225.55,158.969 279.134,197.475 386.685,207.662 396.883,212.546 399.945,215.596     403.275,226.406 402.012,237.728 391.953,252.84 406.331,262.439 418.736,243.823 420.849,224.736   "></polygon>
      </g>
    </g>
  </symbol>
</svg>